<svg width="32" height="32" viewBox="0 0 32 32" fill="black" xmlns="http://www.w3.org/2000/svg">
<path d="M13.3337 25.3336C13.0222 25.3342 12.7203 25.2257 12.4804 25.0269C12.3454 24.915 12.2338 24.7775 12.152 24.6224C12.0702 24.4673 12.0198 24.2975 12.0037 24.1229C11.9876 23.9482 12.0061 23.7721 12.0581 23.6047C12.1102 23.4372 12.1948 23.2816 12.3071 23.1469L18.2804 16.0002L12.5204 8.84025C12.4096 8.70386 12.3269 8.54693 12.277 8.37848C12.2271 8.21003 12.211 8.03337 12.2296 7.85867C12.2482 7.68396 12.3011 7.51466 12.3853 7.36047C12.4696 7.20629 12.5834 7.07028 12.7204 6.96025C12.8583 6.83886 13.0199 6.74731 13.1949 6.69132C13.3699 6.63534 13.5546 6.61613 13.7374 6.63491C13.9202 6.65369 14.0972 6.71005 14.2571 6.80045C14.4171 6.89086 14.5567 7.01335 14.6671 7.16025L21.1071 15.1602C21.3032 15.3988 21.4104 15.6981 21.4104 16.0069C21.4104 16.3157 21.3032 16.615 21.1071 16.8536L14.4404 24.8536C14.3066 25.0149 14.1367 25.1425 13.9444 25.2259C13.7522 25.3093 13.5429 25.3462 13.3337 25.3336Z" fill="black"/>
</svg>
